<svg xmlns="http://www.w3.org/2000/svg" xmlns:xlink="http://www.w3.org/1999/xlink" width="500" zoomAndPan="magnify" viewBox="0 0 375 374.999991" height="500" preserveAspectRatio="xMidYMid meet" version="1.0"><defs><clipPath id="6e6c9e10f3"><path d="M 17.621094 17.621094 L 357.371094 17.621094 L 357.371094 357.367188 L 17.621094 357.367188 Z M 17.621094 17.621094 " clip-rule="nonzero"/></clipPath><clipPath id="e27edd501e"><path d="M 187.496094 17.621094 C 93.675781 17.621094 17.621094 93.675781 17.621094 187.496094 C 17.621094 281.3125 93.675781 357.371094 187.496094 357.371094 C 281.3125 357.371094 357.371094 281.3125 357.371094 187.496094 C 357.371094 93.675781 281.3125 17.621094 187.496094 17.621094 Z M 187.496094 17.621094 " clip-rule="nonzero"/></clipPath><clipPath id="e55c6061fd"><path d="M 76.863281 76.863281 L 298.113281 76.863281 L 298.113281 298.113281 L 76.863281 298.113281 Z M 76.863281 76.863281 " clip-rule="nonzero"/></clipPath><clipPath id="359b7977ea"><path d="M 28.917969 28.917969 L 346.074219 28.917969 L 346.074219 346.074219 L 28.917969 346.074219 Z M 28.917969 28.917969 " clip-rule="nonzero"/></clipPath><clipPath id="a131e68c76"><path d="M 187.496094 28.917969 C 99.917969 28.917969 28.917969 99.917969 28.917969 187.496094 C 28.917969 275.078125 99.917969 346.074219 187.496094 346.074219 C 275.078125 346.074219 346.074219 275.078125 346.074219 187.496094 C 346.074219 99.917969 275.078125 28.917969 187.496094 28.917969 Z M 187.496094 28.917969 " clip-rule="nonzero"/></clipPath></defs><g clip-path="url(#6e6c9e10f3)"><g clip-path="url(#e27edd501e)"><path stroke-linecap="butt" transform="matrix(0.75, 0, 0, 0.75, 17.619166, 17.619161)" fill="none" stroke-linejoin="miter" d="M 226.502585 0.00257657 C 101.408827 0.00257657 0.00257057 101.408833 0.00257057 226.502591 C 0.00257057 351.591141 101.408827 452.997398 226.502585 452.997398 C 351.591135 452.997398 453.0026 351.591141 453.0026 226.502591 C 453.0026 101.408833 351.591135 0.00257657 226.502585 0.00257657 Z M 226.502585 0.00257657 " stroke="#000000" stroke-width="14" stroke-opacity="1" stroke-miterlimit="4"/></g></g><g clip-path="url(#e55c6061fd)"><path fill="#000000" d="M 284.632812 166.746094 L 208.230469 166.746094 L 208.230469 90.691406 C 208.230469 83.085938 202.007812 76.863281 194.402344 76.863281 L 180.574219 76.863281 C 173.316406 76.863281 166.746094 83.433594 166.746094 90.691406 L 166.746094 166.746094 L 90.691406 166.746094 C 83.085938 166.746094 76.863281 172.96875 76.863281 180.574219 L 76.863281 194.402344 C 76.863281 202.007812 83.085938 208.230469 90.691406 208.230469 L 166.746094 208.230469 L 166.746094 284.632812 C 166.746094 292.238281 172.625 298.113281 180.574219 298.113281 L 194.402344 298.113281 C 202.007812 298.113281 208.230469 292.238281 208.230469 284.632812 L 208.230469 208.230469 L 284.632812 208.230469 C 292.238281 208.230469 298.113281 202.007812 298.113281 194.402344 L 298.113281 180.574219 C 298.113281 172.96875 291.890625 166.746094 284.632812 166.746094 Z M 291.199219 194.402344 C 291.199219 198.207031 288.089844 201.316406 284.632812 201.316406 L 204.773438 201.316406 C 202.699219 201.316406 201.316406 202.699219 201.316406 204.773438 L 201.316406 284.632812 C 201.316406 288.433594 198.207031 291.199219 194.402344 291.199219 L 180.574219 291.199219 C 176.773438 291.199219 173.660156 288.433594 173.660156 284.632812 L 173.660156 204.773438 C 173.660156 202.699219 172.277344 201.316406 170.203125 201.316406 L 90.691406 201.316406 C 86.890625 201.316406 83.777344 198.207031 83.777344 194.402344 L 83.777344 180.574219 C 83.777344 176.773438 86.890625 173.660156 90.691406 173.660156 L 170.203125 173.660156 C 172.277344 173.660156 173.660156 172.277344 173.660156 170.203125 L 173.660156 90.691406 C 173.660156 86.890625 176.773438 83.777344 180.574219 83.777344 L 194.402344 83.777344 C 198.207031 83.777344 201.316406 87.234375 201.316406 90.691406 L 201.316406 170.203125 C 201.316406 172.277344 202.699219 173.660156 204.773438 173.660156 L 284.632812 173.660156 C 288.433594 173.660156 291.199219 176.773438 291.199219 180.574219 Z M 291.199219 194.402344 " fill-opacity="1" fill-rule="nonzero"/></g><g clip-path="url(#359b7977ea)"><g clip-path="url(#a131e68c76)"><path stroke-linecap="butt" transform="matrix(0.75, 0, 0, 0.75, 28.919442, 28.919438)" fill="none" stroke-linejoin="miter" d="M 211.435549 -0.0019586 C 94.664708 -0.0019586 -0.0019646 94.664714 -0.0019646 211.435555 C -0.0019646 328.211605 94.664708 422.873069 211.435549 422.873069 C 328.211599 422.873069 422.873063 328.211605 422.873063 211.435555 C 422.873063 94.664714 328.211599 -0.0019586 211.435549 -0.0019586 Z M 211.435549 -0.0019586 " stroke="#000000" stroke-width="12" stroke-opacity="1" stroke-miterlimit="4"/></g></g></svg>