<?xml version="1.0" encoding="utf-8"?>
<!-- Svg Vector Icons : http://www.onlinewebfonts.com/icon -->
<!DOCTYPE svg PUBLIC "-//W3C//DTD SVG 1.1//EN" "http://www.w3.org/Graphics/SVG/1.1/DTD/svg11.dtd">
<svg version="1.1" xmlns="http://www.w3.org/2000/svg" xmlns:xlink="http://www.w3.org/1999/xlink" x="0px" y="0px" viewBox="0 0 256 256" enable-background="new 0 0 256 256" xml:space="preserve">
<metadata> Svg Vector Icons : http://www.onlinewebfonts.com/icon </metadata>
<g><g><path fill="#000000" d="M155.3,190.5l-4.7,9.6c25.2,3.2,40.4,11.2,40.4,17.2c0,7.6-24.5,18.6-63,18.6c-38.5,0-63-11-63-18.6c0-7.1,21.2-17,55-18.4l7.9,16.1l54.6-110.3h-0.1c5.4-9.3,8.5-20,8.5-31.5c0-34.8-28.2-63-63-63c-34.8,0-63,28.2-63,63c0,11.5,3.1,22.2,8.5,31.5h0l41.8,84.4c-31.7,2-60.3,11.7-60.3,28.3c0,18.9,36.8,28.8,73.1,28.8c36.3,0,73.1-9.9,73.1-28.7C201.1,203.2,180.7,194.2,155.3,190.5L155.3,190.5z M101.5,65.3L101.5,65.3c0-14.6,11.8-26.5,26.5-26.5c14.6,0,26.5,11.9,26.5,26.5c0,14.6-11.8,26.5-26.5,26.5C113.4,91.8,101.5,79.9,101.5,65.3z"/></g></g>
</svg>